<?xml version="1.0" encoding="UTF-8"?>
<!DOCTYPE svg PUBLIC "-//W3C//DTD SVG 1.0//EN" "http://www.w3.org/TR/2001/REC-SVG-20010904/DTD/svg10.dtd">
<!-- Creator: CorelDRAW 2018 (64-Bit) -->
<svg xmlns="http://www.w3.org/2000/svg" xml:space="preserve" width="1789px" height="605px" version="1.0" style="shape-rendering:geometricPrecision; text-rendering:geometricPrecision; image-rendering:optimizeQuality; fill-rule:evenodd; clip-rule:evenodd"
viewBox="0 0 1630.61 551.3"
 xmlns:xlink="http://www.w3.org/1999/xlink">
 <defs>
  <style type="text/css">
   <![CDATA[
    .fil2 {fill:#665DA0}
    .fil1 {fill:#39A329}
    .fil0 {fill:yellow}
   ]]>
  </style>
   <mask id="id0">
  <linearGradient id="id1" gradientUnits="userSpaceOnUse" x1="0" y1="275.65" x2="563.64" y2="275.65">
   <stop offset="0" style="stop-opacity:0; stop-color:white"/>
   <stop offset="1" style="stop-opacity:1; stop-color:white"/>
  </linearGradient>
    <rect style="fill:url(#id1)" x="-1.08" y="-1.08" width="565.8" height="553.46"/>
   </mask>
 </defs>
 <g id="Слой_x0020_1">
  <metadata id="CorelCorpID_0Corel-Layer"/>
  <path class="fil0" d="M210.39 412.2c4.81,0.32 2.39,0.11 7.29,0.13 281.88,1.41 256.82,-377.67 -5.68,-378.8 -48.7,-0.21 -87.64,16.48 -122.31,43.94 47.74,-50.08 106.19,-82.83 223.17,-76.74 116.98,6.08 252.98,114.53 250.75,278.3 -1.34,98.7 -67.92,207.65 -176.71,207.65 -82,0 -140.09,-25.94 -176.51,-74.48zm142.86 -273.09c-4.81,-0.33 -2.39,-0.12 -7.29,-0.14 -281.88,-1.41 -256.82,377.68 5.68,378.81 48.7,0.21 87.64,-16.48 122.31,-43.95 -47.74,50.08 -106.19,82.83 -223.17,76.75 -116.98,-6.08 -252.98,-114.54 -250.75,-278.31 1.34,-98.69 67.92,-207.65 176.71,-207.65 82,0 140.09,25.94 176.51,74.49z"/>
  <path class="fil1" style="mask:url(#id0)" d="M210.39 412.2c4.81,0.32 2.39,0.11 7.29,0.13 281.88,1.41 256.83,-377.67 -5.68,-378.8 -48.7,-0.21 -87.64,16.48 -122.3,43.94 47.73,-50.08 106.18,-82.83 223.16,-76.74 116.98,6.08 252.98,114.53 250.75,278.3 -1.34,98.7 -67.92,207.65 -176.71,207.65 -82,0 -140.09,-25.94 -176.51,-74.48zm142.86 -273.09c-4.81,-0.33 -2.39,-0.12 -7.29,-0.14 -281.88,-1.41 -256.82,377.68 5.68,378.81 48.7,0.21 87.65,-16.48 122.31,-43.95 -47.74,50.08 -106.19,82.83 -223.17,76.75 -116.98,-6.08 -252.98,-114.54 -250.75,-278.31 1.34,-98.69 67.92,-207.65 176.72,-207.65 81.99,0 140.08,25.94 176.5,74.49z"/>
  <path class="fil2" d="M914.57 184.55l148.83 267.78 0.15 -267.75 -148.98 -0.03zm-231.06 286.15l-122.66 -0.03 211.81 -380.04 828.79 0 0.17 93.94 -234.82 0.01 0 40.78 149.46 0c81.06,0 114.23,61.83 114.35,123.56 0.12,61.92 -33.04,121.65 -114.35,121.65 -81.87,0 -163.73,-0.05 -245.59,0.09l0.01 -286.1 -95.48 -0.07 0.26 285.93 -224.69 0.23 -30.24 -61.43 -203.65 0.17 -33.37 61.31zm683.29 -150.27l0 55.72 136.06 0 0 -0.17c1,0.11 2.02,0.17 3.05,0.17 15.34,0 27.78,-12.43 27.78,-27.78l0 -0.08 0 -0.08c0,-15.34 -12.44,-27.78 -27.78,-27.78 -1.03,0 -2.05,0.06 -3.05,0.17l0 -0.17 -136.06 0zm-494.85 4.94l-108.01 0.1 53.83 -99.8 54.18 99.7z"/>
 </g>
</svg>
